<svg id="visual" viewBox="0 0 900 320" width="900" height="320" xmlns="http://www.w3.org/2000/svg" xmlns:xlink="http://www.w3.org/1999/xlink" version="1.1"><rect x="0" y="0" width="900" height="320" fill="#001220"></rect><path d="M0 261L21.5 257.3C43 253.7 86 246.3 128.8 239.2C171.7 232 214.3 225 257.2 227.5C300 230 343 242 385.8 243.2C428.7 244.3 471.3 234.7 514.2 231C557 227.3 600 229.7 642.8 232.7C685.7 235.7 728.3 239.3 771.2 238.3C814 237.3 857 231.7 878.5 228.8L900 226L900 321L878.5 321C857 321 814 321 771.2 321C728.3 321 685.7 321 642.8 321C600 321 557 321 514.2 321C471.3 321 428.7 321 385.8 321C343 321 300 321 257.2 321C214.3 321 171.7 321 128.8 321C86 321 43 321 21.5 321L0 321Z" fill="#fa7268"></path><path d="M0 278L21.5 278.3C43 278.7 86 279.3 128.8 278.3C171.7 277.3 214.3 274.7 257.2 275C300 275.3 343 278.7 385.8 274C428.7 269.3 471.3 256.7 514.2 252.7C557 248.7 600 253.3 642.8 253.5C685.7 253.7 728.3 249.3 771.2 248.3C814 247.3 857 249.7 878.5 250.8L900 252L900 321L878.5 321C857 321 814 321 771.2 321C728.3 321 685.7 321 642.8 321C600 321 557 321 514.2 321C471.3 321 428.7 321 385.8 321C343 321 300 321 257.2 321C214.3 321 171.7 321 128.8 321C86 321 43 321 21.5 321L0 321Z" fill="#ee5d3e"></path><path d="M0 297L21.5 293.7C43 290.3 86 283.7 128.8 284.2C171.7 284.7 214.3 292.3 257.2 294.8C300 297.3 343 294.7 385.8 293.8C428.7 293 471.3 294 514.2 290.7C557 287.3 600 279.7 642.8 280.3C685.7 281 728.3 290 771.2 291C814 292 857 285 878.5 281.5L900 278L900 321L878.5 321C857 321 814 321 771.2 321C728.3 321 685.7 321 642.8 321C600 321 557 321 514.2 321C471.3 321 428.7 321 385.8 321C343 321 300 321 257.2 321C214.3 321 171.7 321 128.8 321C86 321 43 321 21.5 321L0 321Z" fill="#db4c00"></path></svg>