<svg id="visual" viewBox="0 0 960 300" width="960" height="300" xmlns="http://www.w3.org/2000/svg" xmlns:xlink="http://www.w3.org/1999/xlink" version="1.1"><rect x="0" y="0" width="960" height="300" fill="#001220"></rect><path d="M0 254L17.8 250.8C35.7 247.7 71.3 241.3 106.8 236.7C142.3 232 177.7 229 213.2 231.5C248.7 234 284.3 242 320 244.8C355.7 247.7 391.3 245.3 426.8 243.8C462.3 242.3 497.7 241.7 533.2 239.5C568.7 237.3 604.3 233.7 640 233C675.7 232.3 711.3 234.7 746.8 239C782.3 243.3 817.7 249.7 853.2 251.5C888.7 253.3 924.3 250.7 942.2 249.3L960 248L960 301L942.2 301C924.3 301 888.7 301 853.2 301C817.7 301 782.3 301 746.8 301C711.3 301 675.7 301 640 301C604.3 301 568.7 301 533.2 301C497.7 301 462.3 301 426.8 301C391.3 301 355.7 301 320 301C284.3 301 248.7 301 213.2 301C177.7 301 142.3 301 106.8 301C71.3 301 35.7 301 17.8 301L0 301Z" fill="#fa7268"></path><path d="M0 247L17.8 249.5C35.7 252 71.3 257 106.8 260C142.3 263 177.7 264 213.2 262C248.7 260 284.3 255 320 255C355.7 255 391.3 260 426.8 260.2C462.3 260.3 497.7 255.7 533.2 254.2C568.7 252.7 604.3 254.3 640 257.5C675.7 260.7 711.3 265.3 746.8 265.7C782.3 266 817.7 262 853.2 261C888.7 260 924.3 262 942.2 263L960 264L960 301L942.2 301C924.3 301 888.7 301 853.2 301C817.7 301 782.3 301 746.8 301C711.3 301 675.7 301 640 301C604.3 301 568.7 301 533.2 301C497.7 301 462.3 301 426.8 301C391.3 301 355.7 301 320 301C284.3 301 248.7 301 213.2 301C177.7 301 142.3 301 106.8 301C71.3 301 35.7 301 17.8 301L0 301Z" fill="#e34c67"></path><path d="M0 276L17.8 275.2C35.7 274.3 71.3 272.7 106.8 272.5C142.3 272.3 177.7 273.7 213.2 274.7C248.7 275.7 284.3 276.3 320 276.3C355.7 276.3 391.3 275.7 426.8 276.7C462.3 277.7 497.7 280.3 533.2 280.3C568.7 280.3 604.3 277.7 640 277.8C675.7 278 711.3 281 746.8 279.3C782.3 277.7 817.7 271.3 853.2 270C888.7 268.7 924.3 272.3 942.2 274.2L960 276L960 301L942.2 301C924.3 301 888.7 301 853.2 301C817.7 301 782.3 301 746.8 301C711.3 301 675.7 301 640 301C604.3 301 568.7 301 533.2 301C497.7 301 462.3 301 426.8 301C391.3 301 355.7 301 320 301C284.3 301 248.7 301 213.2 301C177.7 301 142.3 301 106.8 301C71.3 301 35.7 301 17.8 301L0 301Z" fill="#c62368"></path></svg>