<svg id="visual" viewBox="0 0 900 320" width="900" height="320" xmlns="http://www.w3.org/2000/svg" xmlns:xlink="http://www.w3.org/1999/xlink" version="1.1"><rect x="0" y="0" width="900" height="320" fill="#001220"></rect><path d="M0 72L21.5 76.5C43 81 86 90 128.8 98.8C171.7 107.7 214.3 116.3 257.2 113.2C300 110 343 95 385.8 93.7C428.7 92.3 471.3 104.7 514.2 109.3C557 114 600 111 642.8 107.2C685.7 103.3 728.3 98.7 771.2 99.8C814 101 857 108 878.5 111.5L900 115L900 0L878.5 0C857 0 814 0 771.2 0C728.3 0 685.7 0 642.8 0C600 0 557 0 514.2 0C471.3 0 428.7 0 385.8 0C343 0 300 0 257.2 0C214.3 0 171.7 0 128.8 0C86 0 43 0 21.5 0L0 0Z" fill="#fa7268"></path><path d="M0 51L21.5 50.3C43 49.7 86 48.3 128.8 49.5C171.7 50.7 214.3 54.3 257.2 54.2C300 54 343 50 385.8 55.8C428.7 61.7 471.3 77.3 514.2 82.3C557 87.3 600 81.7 642.8 81.3C685.7 81 728.3 86 771.2 87C814 88 857 85 878.5 83.5L900 82L900 0L878.5 0C857 0 814 0 771.2 0C728.3 0 685.7 0 642.8 0C600 0 557 0 514.2 0C471.3 0 428.7 0 385.8 0C343 0 300 0 257.2 0C214.3 0 171.7 0 128.8 0C86 0 43 0 21.5 0L0 0Z" fill="#ee5d3e"></path><path d="M0 26L21.5 30.2C43 34.3 86 42.7 128.8 42.2C171.7 41.7 214.3 32.3 257.2 29.3C300 26.3 343 29.7 385.8 30.7C428.7 31.7 471.3 30.3 514.2 34.3C557 38.3 600 47.7 642.8 46.8C685.7 46 728.3 35 771.2 33.8C814 32.7 857 41.3 878.5 45.7L900 50L900 0L878.5 0C857 0 814 0 771.2 0C728.3 0 685.7 0 642.8 0C600 0 557 0 514.2 0C471.3 0 428.7 0 385.8 0C343 0 300 0 257.2 0C214.3 0 171.7 0 128.8 0C86 0 43 0 21.5 0L0 0Z" fill="#db4c00"></path></svg>