<svg id="visual" viewBox="0 0 900 320" width="900" height="320" xmlns="http://www.w3.org/2000/svg" xmlns:xlink="http://www.w3.org/1999/xlink" version="1.1"><rect x="0" y="0" width="900" height="320" fill="#001220"></rect><path d="M0 79L21.5 81C43 83 86 87 128.8 87.3C171.7 87.7 214.3 84.3 257.2 81.5C300 78.7 343 76.3 385.8 77.7C428.7 79 471.3 84 514.2 88.7C557 93.3 600 97.7 642.8 93.8C685.7 90 728.3 78 771.2 72.5C814 67 857 68 878.5 68.5L900 69L900 0L878.5 0C857 0 814 0 771.2 0C728.3 0 685.7 0 642.8 0C600 0 557 0 514.2 0C471.3 0 428.7 0 385.8 0C343 0 300 0 257.2 0C214.3 0 171.7 0 128.8 0C86 0 43 0 21.5 0L0 0Z" fill="#fa7268"></path><path d="M0 48L21.5 48.3C43 48.7 86 49.3 128.8 50.2C171.7 51 214.3 52 257.2 55.3C300 58.7 343 64.3 385.8 64.3C428.7 64.3 471.3 58.7 514.2 55.3C557 52 600 51 642.8 54C685.7 57 728.3 64 771.2 62C814 60 857 49 878.5 43.5L900 38L900 0L878.5 0C857 0 814 0 771.2 0C728.3 0 685.7 0 642.8 0C600 0 557 0 514.2 0C471.3 0 428.7 0 385.8 0C343 0 300 0 257.2 0C214.3 0 171.7 0 128.8 0C86 0 43 0 21.5 0L0 0Z" fill="#ee5d3e"></path><path d="M0 39L21.5 40.2C43 41.3 86 43.7 128.8 40.8C171.7 38 214.3 30 257.2 29.8C300 29.7 343 37.3 385.8 39.8C428.7 42.3 471.3 39.7 514.2 39.7C557 39.7 600 42.3 642.8 40.8C685.7 39.3 728.3 33.7 771.2 30.3C814 27 857 26 878.5 25.5L900 25L900 0L878.5 0C857 0 814 0 771.2 0C728.3 0 685.7 0 642.8 0C600 0 557 0 514.2 0C471.3 0 428.7 0 385.8 0C343 0 300 0 257.2 0C214.3 0 171.7 0 128.8 0C86 0 43 0 21.5 0L0 0Z" fill="#db4c00"></path></svg>