<svg id="visual" viewBox="0 0 900 320" width="900" height="320" xmlns="http://www.w3.org/2000/svg" xmlns:xlink="http://www.w3.org/1999/xlink" version="1.1"><rect x="0" y="0" width="900" height="320" fill="#001220"></rect><path d="M0 90L21.5 96C43 102 86 114 128.8 116.2C171.7 118.3 214.3 110.7 257.2 104.8C300 99 343 95 385.8 97.7C428.7 100.3 471.3 109.7 514.2 111.2C557 112.7 600 106.3 642.8 105C685.7 103.7 728.3 107.3 771.2 106.2C814 105 857 99 878.5 96L900 93L900 0L878.5 0C857 0 814 0 771.2 0C728.3 0 685.7 0 642.8 0C600 0 557 0 514.2 0C471.3 0 428.7 0 385.8 0C343 0 300 0 257.2 0C214.3 0 171.7 0 128.8 0C86 0 43 0 21.5 0L0 0Z" fill="#fa7268"></path><path d="M0 89L21.5 89.5C43 90 86 91 128.8 85.2C171.7 79.3 214.3 66.7 257.2 63.5C300 60.3 343 66.7 385.8 72.8C428.7 79 471.3 85 514.2 85.2C557 85.3 600 79.7 642.8 77.8C685.7 76 728.3 78 771.2 78C814 78 857 76 878.5 75L900 74L900 0L878.5 0C857 0 814 0 771.2 0C728.3 0 685.7 0 642.8 0C600 0 557 0 514.2 0C471.3 0 428.7 0 385.8 0C343 0 300 0 257.2 0C214.3 0 171.7 0 128.8 0C86 0 43 0 21.5 0L0 0Z" fill="#ee5d3e"></path><path d="M0 48L21.5 43.8C43 39.7 86 31.3 128.8 26.7C171.7 22 214.3 21 257.2 24C300 27 343 34 385.8 34.7C428.7 35.3 471.3 29.7 514.2 28.8C557 28 600 32 642.8 32C685.7 32 728.3 28 771.2 25.5C814 23 857 22 878.5 21.5L900 21L900 0L878.5 0C857 0 814 0 771.2 0C728.3 0 685.7 0 642.8 0C600 0 557 0 514.2 0C471.3 0 428.7 0 385.8 0C343 0 300 0 257.2 0C214.3 0 171.7 0 128.8 0C86 0 43 0 21.5 0L0 0Z" fill="#db4c00"></path></svg>